<svg xmlns="http://www.w3.org/2000/svg" viewBox="0 0 500.75 271.83"><defs><style>.cls-1,.cls-2{fill:#e6e7e8;}.cls-1{stroke:#f1f2f2;stroke-miterlimit:10;}.cls-3{fill:#f1f2f2;}.cls-4{fill:#27aae1;}.cls-5{fill:#ffde17;}.cls-6{fill:#231f20;}</style></defs><title>Asset 5</title><g id="Layer_2" data-name="Layer 2"><g id="Layer_1-2" data-name="Layer 1"><circle class="cls-1" cx="88.57" cy="91.39" r="58.06"/><path class="cls-2" d="M88.19,91.42"/><path class="cls-3" d="M88.19,93.92c3.21,0,3.22-5,0-5s-3.23,5,0,5Z"/><circle class="cls-2" cx="381.17" cy="213.77" r="58.06"/><path class="cls-4" d="M89,92.2c14.5-1,29.21-1.93,43.61.58,6.42,1.11,12.4,3.47,18.69,5,6.07,1.5,11.5,1,17.46-.69,6.32-1.79,13.48-4.17,19.56-.29,4.69,3,3.09,9.43,8.8,11.23,11.68,3.69,24-3.51,33.73-8.91,6-3.36,13.43-6.57,20.4-4.08,8.38,3,9.66,12.53,9.7,20.22.07,13.48-3.35,27.09-.86,40.52,1.7,9.2,6.23,18.72,14.61,23.56,11.36,6.55,25.44,1.95,36.14,10.61,5.39,4.36,9.29,10.24,13.24,15.84,3.07,4.35,6.08,8.46,11.54,9.73,7.1,1.66,15.36.49,22.58.46q12.65-.06,25.27-.18a.63.63,0,0,0,0-1.25c-14.64.14-29.66,1.14-44.27.16-8.58-.57-12.11-6.92-16.63-13.23-3.2-4.47-6.57-8.91-10.84-12.41-9.75-8-21.36-5.15-32.49-9-13.07-4.56-18.23-19.31-18.73-32-.6-15.17,11-59.09-17.88-54.8-5.06.75-9.55,3.18-13.93,5.69-7.38,4.22-14.43,7.84-23.08,8.38a33.42,33.42,0,0,1-5.48,0c-4.09-.42-5.3-3.11-7.1-6.48a14.06,14.06,0,0,0-2.07-3.42c-2.75-2.93-7.15-4-11.05-3.94-7.49.1-14.22,4.38-21.79,4.17-8-.22-15.64-4.18-23.4-5.72-15.06-3-30.53-2-45.73-1-.8,0-.8,1.3,0,1.25Z"/><path class="cls-5" d="M2,11.24A148.06,148.06,0,0,1,37.15,58.76C41.4,67.94,44,77.47,47.19,87c2.72,8.24,6.47,15.82,13.48,21.22S75.94,116.49,83,121.5c7.45,5.28,12.24,13.2,19,19.22s14.81,7.79,23.51,9.39c5,.92,10.07,1.91,14.59,4.35s8.32,6.52,13.16,8.75c8.29,3.82,18.31,3.85,27.23,4.7,11.16,1.06,22.25,2.66,32.12,8.33,8.1,4.65,15.15,11,23.7,14.93a38.43,38.43,0,0,0,21.42,3c17.11-2.36,31.81-12.83,48.21-17.57,10-2.88,19.38-2.2,29.53-1.19,9,.89,17.87.89,25.95-3.71,9.36-5.33,16.59-13.93,25.31-20.19a131.11,131.11,0,0,1,30.85-16.41c10.57-3.91,21.43-6,32.54-7.65,10.47-1.59,20.87-3.48,30.07-9a.63.63,0,0,0-.63-1.08c-17,10.13-38.28,8.7-56.77,14.6a132.63,132.63,0,0,0-47.22,26.86c-8,7.08-15.78,14.53-27,15.66-10.26,1-20.42-2-30.69-1.37-16.74,1.08-31.36,10.54-46.76,16.19-8.2,3-17.05,5.07-25.78,3.43-9.2-1.72-16.72-7.33-24.25-12.52-7.71-5.33-15.43-9.41-24.66-11.38s-18.93-2.3-28.39-3.46c-6-.73-11.92-1.72-17.16-4.92-4.26-2.6-7.74-6.16-12.36-8.19-8.09-3.55-17.19-3.4-25.46-6.33-9.41-3.33-15-11.36-21.47-18.39-5.92-6.4-12.94-10.3-20.55-14.38-4.59-2.45-9.23-5.06-12.94-8.78C53.66,99.94,51,94.18,48.92,88.25c-3.24-9.34-5.67-18.82-9.68-27.89a148.65,148.65,0,0,0-36.38-50c-.6-.54-1.49.34-.89.88Z"/><path class="cls-6" d="M381.51,217c3.21,0,3.22-5,0-5s-3.23,5,0,5Z"/><path class="cls-6" d="M88.9,93.59c3.22,0,3.22-5,0-5s-3.22,5,0,5Z"/><path class="cls-6" d="M74.84,119.45c3.21,0,3.22-5,0-5s-3.23,5,0,5Z"/><path class="cls-6" d="M2.41,13.3c3.22,0,3.23-5,0-5s-3.22,5,0,5Z"/><path class="cls-6" d="M479.9,120.45c3.21,0,3.22-5,0-5s-3.23,5,0,5Z"/><path class="cls-6" d="M358.85,175.59c3.22,0,3.22-5,0-5s-3.22,5,0,5Z"/><path class="cls-6" d="M70.14,86.6A19.2,19.2,0,0,1,73,86.39a5.86,5.86,0,0,1,4.14,1.27,4.73,4.73,0,0,1,1.45,3.67,5.41,5.41,0,0,1-1.48,4,6.26,6.26,0,0,1-4.52,1.47,20.49,20.49,0,0,1-2.4-.12Zm1.32,9a7.4,7.4,0,0,0,1.34.08c2.82,0,4.35-1.58,4.35-4.34,0-2.41-1.35-3.95-4.14-3.95a7.23,7.23,0,0,0-1.55.14Z"/><path class="cls-6" d="M79.68,91.64a9.47,9.47,0,0,1,1.4-.11,2.94,2.94,0,0,1,2.08.64A2.35,2.35,0,0,1,83.88,94a2.71,2.71,0,0,1-.74,2,3.12,3.12,0,0,1-2.26.74c-.47,0-.87,0-1.2-.06Zm.66,4.53a4.22,4.22,0,0,0,.67,0A2,2,0,0,0,83.19,94a1.82,1.82,0,0,0-2.07-2,4.54,4.54,0,0,0-.78.06Z"/><path class="cls-6" d="M17.56,5.45c0,3.71-2.25,5.68-5,5.68S7.71,8.92,7.71,5.66c0-3.42,2.13-5.66,5-5.66S17.56,2.25,17.56,5.45ZM9.2,5.63c0,2.3,1.25,4.36,3.44,4.36s3.45-2,3.45-4.47c0-2.15-1.12-4.38-3.43-4.38S9.2,3.26,9.2,5.63Z"/><path class="cls-6" d="M18.77,5.63a9.22,9.22,0,0,1,1.48-.11,3.1,3.1,0,0,1,2.19.67,2.48,2.48,0,0,1,.76,1.94,2.81,2.81,0,0,1-.78,2.09A3.3,3.3,0,0,1,20,11a11.31,11.31,0,0,1-1.26-.06Zm.7,4.77a4.55,4.55,0,0,0,.7,0,2.07,2.07,0,0,0,2.3-2.29,1.92,1.92,0,0,0-2.19-2.08,3.89,3.89,0,0,0-.81.07Z"/><path class="cls-6" d="M80.25,131.09c0,4.44-2.7,6.79-6,6.79s-5.79-2.64-5.79-6.54c0-4.09,2.54-6.76,6-6.76S80.25,127.27,80.25,131.09Zm-10,.21c0,2.76,1.5,5.22,4.11,5.22s4.13-2.43,4.13-5.35c0-2.56-1.34-5.24-4.11-5.24S70.25,128.48,70.25,131.3Z"/><path class="cls-6" d="M82.68,131.71V133h1.2v.64h-1.2v2.5c0,.57.16.89.63.89a1.93,1.93,0,0,0,.49,0l0,.63a2,2,0,0,1-.74.11,1.15,1.15,0,0,1-.91-.35,1.72,1.72,0,0,1-.33-1.21v-2.52h-.72V133h.72v-1.11Z"/><path class="cls-6" d="M378.37,177.69c0,3.89-2.75,6-6.09,6a5.54,5.54,0,0,1-5.89-5.75,5.74,5.74,0,0,1,6.08-5.94A5.52,5.52,0,0,1,378.37,177.69Zm-10.18.18c0,2.42,1.52,4.59,4.19,4.59s4.2-2.14,4.2-4.71c0-2.25-1.37-4.6-4.19-4.6S368.19,175.39,368.19,177.87Z"/><path class="cls-6" d="M380.65,181.26h0c.12-.14.28-.32.42-.46l1.38-1.41h1l-1.82,1.68,2.08,2.39h-1l-1.63-2-.44.42v1.53h-.85v-6h.85Z"/><path class="cls-6" d="M495,111.75c0,4-2.46,6.2-5.46,6.2s-5.29-2.41-5.29-6c0-3.73,2.32-6.18,5.46-6.18S495,108.26,495,111.75Zm-9.13.2c0,2.51,1.37,4.76,3.76,4.76s3.77-2.22,3.77-4.89c0-2.33-1.23-4.78-3.76-4.78S485.82,109.36,485.82,112Z"/><path class="cls-6" d="M497.22,115.9l-.61,1.86h-.79l2-5.89h.92l2,5.89h-.81l-.63-1.86Zm1.93-.59-.58-1.7c-.13-.38-.21-.73-.3-1.07h0c-.09.35-.18.71-.3,1.07l-.57,1.7Z"/><path class="cls-6" d="M387.8,210.69a20.33,20.33,0,0,1,2.91-.22,6.07,6.07,0,0,1,4.28,1.32,4.89,4.89,0,0,1,1.49,3.8A5.57,5.57,0,0,1,395,219.7a6.51,6.51,0,0,1-4.68,1.52,24.47,24.47,0,0,1-2.48-.12Zm1.37,9.36a9.07,9.07,0,0,0,1.38.07c2.92,0,4.5-1.63,4.5-4.48,0-2.5-1.4-4.08-4.28-4.08a7.63,7.63,0,0,0-1.6.14Z"/><path class="cls-6" d="M398.52,219.46l-.55,1.67h-.71l1.8-5.3h.83l1.8,5.3H401l-.56-1.67Zm1.74-.53-.52-1.53c-.12-.34-.2-.66-.28-1h0q-.12.47-.27,1l-.52,1.53Z"/></g></g></svg>